<svg role="img" viewBox="0 0 24 24" xmlns="http://www.w3.org/2000/svg">
<g><g><g></g><g><path fill="#53585F" fill-opacity="1" d="M 114390.1751 106408.0664 C 114390.1751 106430.6216 114387.4529 106452.618 114383.6139 106474.36039999999 L 112032.88949999999 104122.0664 114383.6139 101769.72159999999 C 114387.4529 101791.46399999999 114390.1751 101813.4604 114390.1751 101836.0664 114390.1751 101836.0664 114390.1751 106408.0664 114390.1751 106408.0664 Z M 114009.34629999999 106789.0664 L 107156.59169999999 106789.0664 C 107111.9895 106789.0664 107069.34169999999 106780.02399999999 107029.76509999999 106765.9016 L 109402.1973 104391.3064 110055.59509999999 105045.458 C 110201.40729999999 105191.40639999999 110392.1707 105264.2028 110583.0039 105264.2028 110773.76729999999 105264.2028 110964.5307 105191.40639999999 111109.9939 105045.458 L 111763.7407 104391.3064 114136.59169999999 106765.9016 C 114096.59629999999 106780.02399999999 114054.3673 106789.0664 114009.34629999999 106789.0664 M 106775.7629 106408.0664 L 106775.7629 101836.0664 C 106775.7629 101813.4604 106778.48509999999 101791.46399999999 106782.3939 101769.72159999999 L 109133.04849999999 104122.0664 106782.3939 106474.36039999999 C 106778.48509999999 106452.618 106775.7629 106430.6216 106775.7629 106408.0664 M 107156.59169999999 101455.0664 L 114009.34629999999 101455.0664 C 114054.3673 101455.0664 114096.59629999999 101464.05799999999 114136.59169999999 101478.4852 L 110840.84509999999 104776.218 C 110772.23169999999 104845.1028 110680.3051 104883.2028 110583.0039 104883.2028 110485.6329 104883.2028 110393.70629999999 104845.1028 110324.7439 104776.218 L 107029.76509999999 101478.4852 C 107069.34169999999 101464.05799999999 107111.9895 101455.0664 107156.59169999999 101455.0664 M 114009.34629999999 101074.0664 L 107156.59169999999 101074.0664 C 106735.8373 101074.0664 106395.0039 101415.2392 106395.0039 101836.0664 L 106395.0039 106408.0664 C 106395.0039 106828.8428 106735.8373 107170.0664 107156.59169999999 107170.0664 L 114009.34629999999 107170.0664 C 114430.1007 107170.0664 114771.0039 106828.8428 114771.0039 106408.0664 L 114771.0039 101836.0664 C 114771.0039 101415.2392 114430.1007 101074.0664 114009.34629999999 101074.0664"></path></g><g><path fill="#000" fill-opacity="0" stroke="#000" stroke-opacity="0" stroke-width="5644.444444444444" stroke-linecap="round" stroke-linejoin="round" stroke-miterlimit="10" pointer-events="visiblePainted" d="M 114390.1751 106408.0664 C 114390.1751 106430.6216 114387.4529 106452.618 114383.6139 106474.36039999999 L 112032.88949999999 104122.0664 114383.6139 101769.72159999999 C 114387.4529 101791.46399999999 114390.1751 101813.4604 114390.1751 101836.0664 114390.1751 101836.0664 114390.1751 106408.0664 114390.1751 106408.0664 Z M 114009.34629999999 106789.0664 L 107156.59169999999 106789.0664 C 107111.9895 106789.0664 107069.34169999999 106780.02399999999 107029.76509999999 106765.9016 L 109402.1973 104391.3064 110055.59509999999 105045.458 C 110201.40729999999 105191.40639999999 110392.1707 105264.2028 110583.0039 105264.2028 110773.76729999999 105264.2028 110964.5307 105191.40639999999 111109.9939 105045.458 L 111763.7407 104391.3064 114136.59169999999 106765.9016 C 114096.59629999999 106780.02399999999 114054.3673 106789.0664 114009.34629999999 106789.0664 M 106775.7629 106408.0664 L 106775.7629 101836.0664 C 106775.7629 101813.4604 106778.48509999999 101791.46399999999 106782.3939 101769.72159999999 L 109133.04849999999 104122.0664 106782.3939 106474.36039999999 C 106778.48509999999 106452.618 106775.7629 106430.6216 106775.7629 106408.0664 M 107156.59169999999 101455.0664 L 114009.34629999999 101455.0664 C 114054.3673 101455.0664 114096.59629999999 101464.05799999999 114136.59169999999 101478.4852 L 110840.84509999999 104776.218 C 110772.23169999999 104845.1028 110680.3051 104883.2028 110583.0039 104883.2028 110485.6329 104883.2028 110393.70629999999 104845.1028 110324.7439 104776.218 L 107029.76509999999 101478.4852 C 107069.34169999999 101464.05799999999 107111.9895 101455.0664 107156.59169999999 101455.0664 M 114009.34629999999 101074.0664 L 107156.59169999999 101074.0664 C 106735.8373 101074.0664 106395.0039 101415.2392 106395.0039 101836.0664 L 106395.0039 106408.0664 C 106395.0039 106828.8428 106735.8373 107170.0664 107156.59169999999 107170.0664 L 114009.34629999999 107170.0664 C 114430.1007 107170.0664 114771.0039 106828.8428 114771.0039 106408.0664 L 114771.0039 101836.0664 C 114771.0039 101415.2392 114430.1007 101074.0664 114009.34629999999 101074.0664"></path></g></g></g>
</svg>